<svg width="189" height="189" viewBox="0 0 189 189" fill="none" xmlns="http://www.w3.org/2000/svg">
<rect x="1" y="1" width="187" height="187" rx="46" fill="white"/>
<rect x="1" y="1" width="187" height="187" rx="46" stroke="black" stroke-width="2"/>
<path d="M47.343 130V60H77.643C83.9096 60 89.3096 61.0333 93.843 63.1C98.3763 65.1 101.876 68 104.343 71.8C106.81 75.6 108.043 80.1333 108.043 85.4C108.043 90.6 106.81 95.1 104.343 98.9C101.876 102.7 98.3763 105.633 93.843 107.7C89.3096 109.7 83.9096 110.7 77.643 110.7H56.343L63.543 103.4V130H47.343ZM63.543 105.2L56.343 97.5H76.743C81.743 97.5 85.4763 96.4333 87.943 94.3C90.4096 92.1667 91.643 89.2 91.643 85.4C91.643 81.5333 90.4096 78.5333 87.943 76.4C85.4763 74.2667 81.743 73.2 76.743 73.2H56.343L63.543 65.5V105.2ZM121.385 130V75C121.385 68.9333 123.185 64.1 126.785 60.5C130.385 56.8333 135.518 55 142.185 55C144.452 55 146.618 55.2333 148.685 55.7C150.818 56.1667 152.618 56.9 154.085 57.9L149.985 69.2C149.118 68.6 148.152 68.1333 147.085 67.8C146.018 67.4667 144.885 67.3 143.685 67.3C141.418 67.3 139.652 67.9667 138.385 69.3C137.185 70.5667 136.585 72.5 136.585 75.1V80.1L136.985 86.8V130H121.385ZM113.085 89.4V77.4H150.385V89.4H113.085Z" fill="black"/>
</svg>
